<mxfile host="app.diagrams.net" modified="2024-06-10T06:48:44.378Z" agent="Mozilla/5.0 (Windows NT 10.0; Win64; x64) AppleWebKit/537.36 (KHTML, like Gecko) Chrome/125.0.0.0 Safari/537.36" etag="wIzDBrfAJwZbcOeo5VeF" version="24.5.2" type="onedrive">
  <diagram name="Halaman-1" id="kPI7NM7rZgHhVrCWQt8h">
    <mxGraphModel grid="1" page="1" gridSize="10" guides="1" tooltips="1" connect="1" arrows="1" fold="1" pageScale="1" pageWidth="827" pageHeight="1169" math="0" shadow="0">
      <root>
        <mxCell id="0" />
        <mxCell id="1" parent="0" />
        <mxCell id="gZYLWpiwjVOA713SH9bu-5" value="" style="edgeStyle=orthogonalEdgeStyle;rounded=0;orthogonalLoop=1;jettySize=auto;html=1;" edge="1" parent="1" source="gZYLWpiwjVOA713SH9bu-1" target="gZYLWpiwjVOA713SH9bu-3">
          <mxGeometry relative="1" as="geometry" />
        </mxCell>
        <mxCell id="gZYLWpiwjVOA713SH9bu-1" value="tampilkanMenuUtama" style="ellipse;whiteSpace=wrap;html=1;" vertex="1" parent="1">
          <mxGeometry x="40" y="40" width="130" height="40" as="geometry" />
        </mxCell>
        <mxCell id="gZYLWpiwjVOA713SH9bu-7" value="" style="edgeStyle=orthogonalEdgeStyle;rounded=0;orthogonalLoop=1;jettySize=auto;html=1;" edge="1" parent="1" source="gZYLWpiwjVOA713SH9bu-3" target="gZYLWpiwjVOA713SH9bu-6">
          <mxGeometry relative="1" as="geometry" />
        </mxCell>
        <mxCell id="gZYLWpiwjVOA713SH9bu-3" value="mulai" style="ellipse;whiteSpace=wrap;html=1;" vertex="1" parent="1">
          <mxGeometry x="80" y="120" width="50" height="20" as="geometry" />
        </mxCell>
        <mxCell id="gZYLWpiwjVOA713SH9bu-9" value="" style="edgeStyle=orthogonalEdgeStyle;rounded=0;orthogonalLoop=1;jettySize=auto;html=1;" edge="1" parent="1" source="gZYLWpiwjVOA713SH9bu-6" target="gZYLWpiwjVOA713SH9bu-8">
          <mxGeometry relative="1" as="geometry" />
        </mxCell>
        <mxCell id="gZYLWpiwjVOA713SH9bu-6" value="tampilan&lt;div&gt;menu utama&lt;/div&gt;" style="shape=parallelogram;perimeter=parallelogramPerimeter;whiteSpace=wrap;html=1;fixedSize=1;" vertex="1" parent="1">
          <mxGeometry x="52.5" y="180" width="105" height="40" as="geometry" />
        </mxCell>
        <mxCell id="gZYLWpiwjVOA713SH9bu-8" value="selesai" style="ellipse;whiteSpace=wrap;html=1;" vertex="1" parent="1">
          <mxGeometry x="80" y="260" width="50" height="20" as="geometry" />
        </mxCell>
      </root>
    </mxGraphModel>
  </diagram>
</mxfile>
